<svg width="37" height="49" viewBox="0 0 37 49" fill="none" xmlns="http://www.w3.org/2000/svg">
<path d="M0 11.8981H14.9016C15.9677 11.6586 17.0459 10.8151 15.9142 9.21166C15.6235 8.80134 15.3079 8.3782 15.0092 7.93989C14.1523 7.02594 13.6572 5.70166 13.7612 4.37448C14.0541 1.4505 16.2801 -0.00958091 18.4997 4.82067e-05H18.5H18.5003C20.7199 -0.00967175 22.9459 1.4505 23.2388 4.37448C23.3428 5.70166 22.8477 7.02594 21.9908 7.93989C21.6921 8.3782 21.3765 8.80134 21.0858 9.21166C19.9541 10.8151 21.0324 11.6586 22.0984 11.8981H37V26.8405C36.7611 27.9095 35.92 28.9907 34.3209 27.8558C33.9117 27.5644 33.4898 27.2479 33.0526 26.9483C32.1411 26.0891 30.8205 25.5926 29.497 25.6969C26.5813 25.9907 25.1247 28.2231 25.1345 30.449C25.1247 32.675 26.5813 34.9074 29.497 35.2012C30.8205 35.3056 32.1411 34.8089 33.0526 33.9498C33.4897 33.6502 33.9117 33.3337 34.3209 33.0423C35.92 31.9074 36.7611 32.9887 37 34.0576V49H0V11.8981Z" fill="#D9D9D9"/>
</svg>
