<svg width="50" height="37" viewBox="0 0 50 37" fill="none" xmlns="http://www.w3.org/2000/svg">
<path d="M50 18.4997C50.0098 16.2801 48.5199 14.0541 45.5362 13.7612C44.182 13.6572 42.8307 14.1523 41.8981 15.0092C41.4508 15.3079 41.019 15.6235 40.6003 15.9142C38.9642 17.0459 38.1035 15.9676 37.8591 14.9016V0H0V37H15.2473C16.3382 36.7611 17.4414 35.92 16.2834 34.3209C15.986 33.9117 15.6631 33.4898 15.3574 33.0527C14.4807 32.1412 13.974 30.8206 14.0804 29.4971C14.3802 26.5814 16.6582 25.1248 18.9295 25.1346C21.2009 25.1248 23.4789 26.5814 23.7787 29.4971C23.8852 30.8206 23.3784 32.1412 22.5017 33.0527C22.196 33.4898 21.8731 33.9117 21.5757 34.3209C20.4177 35.92 21.521 36.7611 22.6117 37H37.8591V22.0984C38.1035 21.0323 38.9642 19.9541 40.6003 21.0858C41.019 21.3765 41.4508 21.6921 41.8981 21.9908C42.8307 22.8477 44.182 23.3428 45.5362 23.2388C48.5199 22.9459 50.0098 20.7199 50 18.5003V18.5V18.4997Z" fill="#D9D9D9"/>
</svg>
