<svg width="50" height="37" viewBox="0 0 50 37" fill="none" xmlns="http://www.w3.org/2000/svg">
<path d="M4.82812e-05 18.5003C-0.00977735 20.7199 1.4801 22.9459 4.46376 23.2388C5.81803 23.3428 7.16933 22.8477 8.10193 21.9908C8.54918 21.6921 8.98096 21.3765 9.39966 21.0858C11.0358 19.9541 11.8965 21.0324 12.1409 22.0984V37H50V0H34.7527C33.6618 0.238889 32.5586 1.08003 33.7166 2.67905C34.014 3.08826 34.3369 3.51023 34.6426 3.94733C35.5193 4.85877 36.026 6.17941 35.9196 7.50295C35.6198 10.4185 33.3418 11.8752 31.0705 11.8654C28.7991 11.8752 26.5211 10.4186 26.2213 7.50295C26.1148 6.17941 26.6216 4.85877 27.4983 3.94733C27.804 3.51023 28.1269 3.08826 28.4243 2.67905C29.5823 1.08003 28.479 0.238889 27.3883 0H12.1409V14.9016C11.8965 15.9677 11.0358 17.0459 9.39966 15.9142C8.98096 15.6235 8.54918 15.3079 8.10193 15.0092C7.16933 14.1523 5.81803 13.6572 4.46376 13.7612C1.4801 14.0541 -0.00977735 16.2801 4.82812e-05 18.4997V18.5V18.5003Z" fill="#D9D9D9"/>
</svg>
