<svg width="38" height="49" viewBox="0 0 38 49" fill="none" xmlns="http://www.w3.org/2000/svg">
<path d="M19.0003 49C21.2799 49.0096 23.566 47.5495 23.8669 44.6255C23.9737 43.2983 23.4652 41.9741 22.5852 41.0601C22.2783 40.6218 21.9542 40.1987 21.6557 39.7883C20.4934 38.1849 21.6008 37.3414 22.6956 37.1019H38V0H0V14.9424C0.245346 16.0114 1.10922 17.0926 2.75146 15.9577C3.17172 15.6663 3.6051 15.3498 4.05402 15.0502C4.99009 14.191 6.34642 13.6945 7.70573 13.7988C10.7002 14.0926 12.1962 16.325 12.1861 18.551C12.1962 20.7769 10.7002 23.0093 7.70573 23.3031C6.34642 23.4075 4.99009 22.9109 4.05402 22.0517C3.6051 21.7521 3.17172 21.4356 2.75146 21.1442C1.10922 20.0093 0.245346 21.0906 0 22.1595V37.1019H15.3044C16.3993 37.3414 17.5066 38.1849 16.3443 39.7883C16.0458 40.1987 15.7217 40.6218 15.4148 41.0601C14.5348 41.9741 14.0263 43.2983 14.1331 44.6255C14.434 47.5495 16.7201 49.0096 18.9997 49H19H19.0003Z" fill="#E9D354"/>
</svg>
