<svg width="154" height="54" viewBox="0 0 154 54" fill="none" xmlns="http://www.w3.org/2000/svg">
<path d="M37.4679 52.6588C37.4679 53.3739 36.8854 53.9535 36.1669 53.9535H30.3126C29.5941 53.9535 29.0116 53.3739 29.0116 52.6588V30.8431C29.0116 30.128 28.4291 29.5484 27.7106 29.5484H24.2631C23.5446 29.5484 22.9621 30.128 22.9621 30.8431V52.6588C22.9621 53.3739 22.3796 53.9535 21.6611 53.9535H15.8068C15.0883 53.9535 14.5058 53.3739 14.5058 52.6588V30.8431C14.5058 30.128 13.9233 29.5484 13.2048 29.5484H9.75726C9.03876 29.5484 8.4563 30.128 8.4563 30.8431V52.6588C8.4563 53.3739 7.87383 53.9535 7.15533 53.9535H1.30097C0.582463 53.9535 0 53.3739 0 52.6588V26.2469C0 23.4225 2.30073 21.1328 5.13883 21.1328H32.3291C35.1672 21.1328 37.4679 23.4225 37.4679 26.2469V52.6588Z" fill="#2A82C3"/>
<path d="M47.8061 35.5791C47.8061 36.2899 48.3892 36.8662 49.1084 36.8662H65.909C66.6283 36.8662 67.2114 36.2899 67.2114 35.5791V30.9147C67.2114 30.2038 66.6283 29.6276 65.909 29.6276H49.1084C48.3892 29.6276 47.8061 30.2038 47.8061 30.9147V35.5791ZM75.807 52.6664C75.807 53.3773 75.2239 53.9535 74.5046 53.9535H68.5137C67.7945 53.9535 67.2114 53.3773 67.2114 52.6664V46.648C67.2114 45.9372 66.6283 45.361 65.909 45.361H49.1084C48.3892 45.361 47.8061 45.9372 47.8061 46.648V52.6664C47.8061 53.3773 47.223 53.9535 46.5037 53.9535H40.5128C39.7935 53.9535 39.2104 53.3773 39.2104 52.6664V27.4395C39.2104 23.9564 42.0676 21.1328 45.5921 21.1328H69.4254C72.9499 21.1328 75.807 23.9564 75.807 27.4395V52.6664Z" fill="#2A82C3"/>
<path d="M134.819 28.2857C135.785 28.2857 136.408 27.3175 135.968 26.5027L133.354 21.6659C133.133 21.2571 132.689 21 132.205 21H118.404C117.691 21 117.113 21.5482 117.113 22.2245V52.7755C117.113 53.4518 117.691 54 118.404 54H138.475C139.446 54 140.07 53.0217 139.619 52.2063L136.907 47.3084C136.684 46.9054 136.244 46.6531 135.764 46.6531H126.861C126.148 46.6531 125.57 46.1048 125.57 45.4286V42.1224C125.57 41.4462 126.148 40.898 126.861 40.898H131.655C132.605 40.898 133.23 39.9579 132.82 39.1452L130.505 34.5533C130.29 34.1279 129.837 33.8571 129.34 33.8571H126.861C126.148 33.8571 125.57 33.3089 125.57 32.6327V29.5102C125.57 28.8339 126.148 28.2857 126.861 28.2857H134.819Z" fill="#2A82C3"/>
<path d="M141.265 28.1368C140.971 28.1368 140.702 27.9811 140.569 27.7344L137.526 22.0616C137.264 21.5747 137.641 21 138.221 21H148.054C151.208 21 153.765 23.4033 153.765 26.3678V35.4566C153.765 38.4211 151.208 40.8244 148.054 40.8244C147.471 40.8244 147.103 41.4124 147.386 41.8908L153.901 52.9125C154.189 53.4004 153.814 54 153.22 54H144.838C144.542 54 144.271 53.8419 144.14 53.5922L134.331 34.9268C134.075 34.4403 134.452 33.8706 135.029 33.8706H142.992C144.21 33.8706 145.198 32.9421 145.198 31.7967V31.0037V30.2107C145.198 29.0653 144.21 28.1368 142.992 28.1368H141.265Z" fill="#2A82C3"/>
<path d="M112.967 21.09C114.316 21.09 114.994 22.4881 114.044 23.3099L101.12 34.4842C100.588 34.9443 100.531 35.6704 100.987 36.1875L114.77 51.8224C115.526 52.6803 114.813 53.9107 113.56 53.9107H103.987C103.526 53.9107 103.09 53.7305 102.802 53.4212L92.8319 42.7094C92.2503 42.0845 91.156 42.053 90.5269 42.6429L87.798 45.202C87.5419 45.4421 87.3999 45.7558 87.3999 46.0813V52.6083C87.3999 53.3276 86.7205 53.9107 85.8824 53.9107H79.1298C78.2917 53.9107 77.6123 53.3276 77.6123 52.6083V22.3924C77.6123 21.6731 78.2917 21.09 79.1298 21.09L85.8824 21.09C86.7205 21.09 87.3999 21.6731 87.3999 22.3924V31.4727C87.3999 32.6307 89.0289 33.2129 89.9864 32.397L102.814 21.4681C103.098 21.2259 103.482 21.09 103.883 21.09H112.967Z" fill="#2A82C3"/>
<path d="M0.651367 17.7123V0H3.4568V17.7123H0.651367Z" fill="#181F37"/>
<path d="M69.0395 17.9976C67.724 17.9976 66.5511 17.7202 65.5208 17.1655C64.5064 16.6107 63.706 15.8499 63.1196 14.8831C62.549 13.9162 62.2637 12.8147 62.2637 11.5784V0H65.0691V11.4595C65.0691 12.2361 65.2355 12.9256 65.5684 13.5279C65.9171 14.1302 66.3846 14.5978 66.9711 14.9306C67.5734 15.2635 68.2629 15.4299 69.0395 15.4299C69.832 15.4299 70.5215 15.2635 71.1079 14.9306C71.7102 14.5978 72.1778 14.1302 72.5106 13.5279C72.8593 12.9256 73.0337 12.2361 73.0337 11.4595V5.0843L75.8153 5.0843V11.5784C75.8153 12.8147 75.53 13.9162 74.9594 14.8831C74.3888 15.8499 73.5884 16.6107 72.5582 17.1655C71.5438 17.7202 70.3709 17.9976 69.0395 17.9976Z" fill="#181F37"/>
<path d="M5.69092 12.674V4.85012H8.2586V7.37025L7.94953 7.03741C8.26653 6.22906 8.77373 5.61884 9.47112 5.20674C10.1685 4.77879 10.9769 4.56482 11.8962 4.56482C12.8472 4.56482 13.6872 4.77087 14.4163 5.18297C15.1454 5.59506 15.716 6.16566 16.1281 6.89476C16.5402 7.62385 16.7462 8.4639 16.7462 9.41489V17.7123H14.0834V10.1281C14.0834 9.47829 13.9646 8.93147 13.7268 8.48767C13.4891 8.02802 13.1483 7.67933 12.7045 7.44158C12.2766 7.18798 11.7852 7.06118 11.2305 7.06118C10.6757 7.06118 10.1764 7.18798 9.73265 7.44158C9.3047 7.67933 8.97185 8.02802 8.7341 8.48767C8.49635 8.94732 8.37748 9.49414 8.37748 10.1281V12.674H5.69092Z" fill="#181F37"/>
<path d="M55.2295 17.7119H52.4482V5.08398H55.2295V17.7119ZM59.8662 2.49609H55.2295V2.50586H52.4482V2.49609H47.7412V0H59.8662V2.49609Z" fill="#181F37"/>
<path d="M45.5259 2.49609H36.6577V7.58398H43.5083V10.0801H36.6577V15.2158H45.5259V17.7119H33.8521V0H45.5259V2.49609Z" fill="#181F37"/>
<path d="M25.5146 0C26.7034 0 27.7499 0.222217 28.6533 0.666016C29.5724 1.09393 30.2858 1.72751 30.793 2.56738C31.3001 3.39146 31.5536 4.38223 31.5537 5.53906C31.5537 6.68005 31.2924 7.6632 30.7695 8.4873C30.2624 9.31145 29.5567 9.94585 28.6533 10.3896C27.7499 10.8334 26.7034 11.0557 25.5146 11.0557H21.877V17.7119H19.0723V5.08398H21.877V8.55859H25.5859C26.2198 8.55859 26.7746 8.43218 27.25 8.17871C27.7255 7.92513 28.0987 7.57656 28.3682 7.13281C28.6376 6.67316 28.7715 6.13377 28.7715 5.51562C28.7715 4.89761 28.6375 4.36658 28.3682 3.92285C28.0987 3.4632 27.7255 3.1147 27.25 2.87695C26.7746 2.62343 26.2198 2.49609 25.5859 2.49609H21.877V2.50586H19.0723V0H25.5146Z" fill="#181F37"/>
</svg>
